<?xml version="1.0" encoding="utf-8"?>
<!-- Generator: Adobe Illustrator 16.0.4, SVG Export Plug-In . SVG Version: 6.00 Build 0)  -->
<!DOCTYPE svg PUBLIC "-//W3C//DTD SVG 1.1//EN" "http://www.w3.org/Graphics/SVG/1.1/DTD/svg11.dtd">
<svg version="1.1" id="Layer_1" xmlns:sketch="http://www.bohemiancoding.com/sketch/ns"
	 xmlns="http://www.w3.org/2000/svg" xmlns:xlink="http://www.w3.org/1999/xlink" x="0px" y="0px" width="500px" height="500px"
	 viewBox="-189 -196.5 500 500" enable-background="new -189 -196.5 500 500" xml:space="preserve">
<rect x="-189" y="-196.5" fill="#00ABBF" width="500" height="500"/>
<title>Group</title>
<desc>Created with Sketch.</desc>
<g id="Stores" sketch:type="MSPage">
	<g id="Stores_Invitations_null" transform="translate(-99.000000, -237.000000)" sketch:type="MSArtboardGroup">
		<g id="Group" transform="translate(100.000000, 238.000000)" sketch:type="MSLayerGroup">
			<path id="Stroke-5107" sketch:type="MSShapeGroup" fill="none" stroke="#FFFFFF" stroke-width="2" stroke-miterlimit="10" d="
				M176.543,25.742v150.262H-56.543V25.482"/>
			<path id="Stroke-5108" sketch:type="MSShapeGroup" fill="none" stroke="#FFFFFF" stroke-width="2" stroke-miterlimit="10" d="
				M66.139,138.949h-98.142V64.849h98.142V138.949z"/>
			<path id="Stroke-5109" sketch:type="MSShapeGroup" fill="none" stroke="#FFFFFF" stroke-width="2" stroke-miterlimit="10" d="
				M152.012,176.002H90.676V64.849h61.336V176.002z"/>
			<path id="Stroke-5110" sketch:type="MSShapeGroup" fill="none" stroke="#FFFFFF" stroke-width="2" stroke-miterlimit="10" d="
				M176.543-71.004H-56.543l-24.535,49.4h282.156L176.543-71.004L176.543-71.004z"/>
			<path id="Stroke-5111" sketch:type="MSShapeGroup" fill="none" stroke="#FFFFFF" stroke-width="2" stroke-miterlimit="10" d="
				M201.078-9.253c0,20.465-16.475,37.051-36.801,37.051c-10.135,0-17.877-5.682-24.539-12.349
				c-8.684,13.893-25.43,24.7-42.938,24.7c-14.672,0-27.809-6.522-36.801-16.797c-8.979,10.274-22.13,16.797-36.803,16.797
				c-17.507,0-34.253-10.808-42.938-24.7c-6.649,6.667-14.401,12.349-24.536,12.349c-20.326,0-36.802-16.586-36.802-37.051v-12.351
				h282.156V-9.253L201.078-9.253z"/>
			<path id="Stroke-5112" sketch:type="MSShapeGroup" fill="none" stroke="#FFFFFF" stroke-width="2" stroke-miterlimit="10" d="
				M-19.74,15.449v-37.053l12.268-49.4"/>
			<path id="Stroke-5113" sketch:type="MSShapeGroup" fill="none" stroke="#FFFFFF" stroke-width="2" stroke-miterlimit="10" d="
				M60,23.426v-45.029v-49.4"/>
			<path id="Stroke-5114" sketch:type="MSShapeGroup" fill="none" stroke="#FFFFFF" stroke-width="2" stroke-miterlimit="10" d="
				M139.738,15.449v-37.053l-12.266-49.4"/>
			<path id="Fill-5115" sketch:type="MSShapeGroup" fill="#00ABBF" stroke="#FFFFFF" stroke-width="2" stroke-miterlimit="10" d="
				M127.473,120.424c-3.387,0-6.135,2.768-6.135,6.176c0,3.422,2.748,6.176,6.135,6.176c3.385,0,6.133-2.754,6.133-6.176
				C133.605,123.191,130.857,120.424,127.473,120.424"/>
		</g>
	</g>
</g>
<text transform="matrix(1 0 0 1 -55.5 206.3145)" fill="#FFFFFF" font-family="'Gotham-Book'" font-size="22.0665">YELLO</text>
</svg>
